<svg width="720" height="720" viewBox="0 0 720 720" fill="#3B82F6" xmlns="http://www.w3.org/2000/svg">
<path d="M539.876 179.959V539.876H179.959V179.959H539.876Z" fill="current"/>
<path d="M340.215 394.558C340.215 381.433 341.809 370.98 344.996 363.199C348.184 355.417 353.996 347.777 362.434 340.277C370.965 332.683 376.637 326.542 379.449 321.855C382.262 317.074 383.668 312.058 383.668 306.808C383.668 290.964 376.355 283.042 361.73 283.042C354.793 283.042 349.215 285.199 344.996 289.511C340.871 293.73 338.715 299.589 338.527 307.089H297.746C297.934 289.183 303.699 275.167 315.043 265.042C326.48 254.917 342.043 249.855 361.73 249.855C381.605 249.855 397.027 254.683 407.996 264.339C418.965 273.902 424.449 287.449 424.449 304.98C424.449 312.949 422.668 320.496 419.105 327.621C415.543 334.652 409.309 342.48 400.402 351.105L389.012 361.933C381.887 368.777 377.809 376.792 376.777 385.98L376.215 394.558H340.215ZM336.137 437.73C336.137 431.449 338.246 426.292 342.465 422.261C346.777 418.136 352.262 416.074 358.918 416.074C365.574 416.074 371.012 418.136 375.23 422.261C379.543 426.292 381.699 431.449 381.699 437.73C381.699 443.917 379.59 449.027 375.371 453.058C371.246 457.089 365.762 459.105 358.918 459.105C352.074 459.105 346.543 457.089 342.324 453.058C338.199 449.027 336.137 443.917 336.137 437.73Z" fill="white"/>
</svg>
