<svg width="225" height="226" viewBox="0 0 225 226" fill="none" xmlns="http://www.w3.org/2000/svg">
<path d="M27.1118 198.56C24.9286 196.377 36.3044 168.862 36.3044 168.862L47.673 124.722L100.949 177.999L56.8104 189.368C56.8104 189.368 29.295 200.743 27.1118 198.56Z" fill="#FFD0B6"/>
<path d="M27.1122 198.56C25.207 196.655 36.6581 168.508 36.6581 168.508L57.1642 189.014C57.1642 189.014 29.0174 200.466 27.1122 198.56Z" fill="black"/>
<path d="M158.951 13.688C158.951 13.688 174.897 4.10581 198.231 27.4403C221.566 50.7749 211.984 66.721 211.984 66.721L193.635 85.0695L140.602 32.0365L158.951 13.688Z" fill="#FF5C5C"/>
<rect x="140.604" y="32.0361" width="75" height="132" transform="rotate(45 140.604 32.0361)" fill="#F9CC5A"/>
<line x1="142.371" y1="62.0881" x2="76.6104" y2="126.435" stroke="#626262" stroke-width="5"/>
<line x1="165.705" y1="85.423" x2="99.9443" y2="149.77" stroke="#626262" stroke-width="5"/>
</svg>
